# xmcd
#
# Track frame offsets:
#	150
#	22139
#	36625
#	57558
#	72607
#	86688
#	101942
#	117090
#	131821
#	146938
#	160632
#	174219
#	187492
#	198357
#	209869
#	223919
#	238302
#	253068
#	266892
#	285125
#
# Disc length: 3965 seconds
#
# Revision: 0
# Processed by: cddbd v1.5.2PL0 Copyright (c) Steve Scherf et al.
# Submitted via: audiograbber 1.83.01
#
DISCID=580f7b14
DTITLE=Various Artist - Selection of Erotic Sax - CD 2
DYEAR=1999
DGENRE=Jazz
TTITLE0=Lester Young - The Man I Love
TTITLE1=Coleman Hawkins - Sophisticated Lady
TTITLE2=Johnny Hodges - Flamingo
TTITLE3=Don Byas - Once In A While
TTITLE4=Illinois Jacquet - Don't Blame Me
TTITLE5=Lester Young - She's Funny That Way
TTITLE6=Dan Byas - Candy
TTITLE7=Coleman Hawkins - Angel Face
TTITLE8=Sidney Bechet - Love For Sale
TTITLE9=Johnny Hodges - Day Dream
TTITLE10=Lester Young - No Eyes Blues
TTITLE11=Ike Quebec - I. Q. Blues (Blue Harlem)
TTITLE12=Don Byas - They Say It's Wonderful
TTITLE13=Lester Young - I'm Confessin' (That I Love You)
TTITLE14=Don Byas - Stardust
TTITLE15=Coleman Hawkins - My Ideal
TTITLE16=Ike Quebec - Dolores
TTITLE17=Charlie Parker - The Gypsy
TTITLE18=Lester Young - I Cover The Waterfront
TTITLE19=Stan Getz - And The Angels Swing
EXTD=YEAR: 1999
EXTT0=
EXTT1=
EXTT2=
EXTT3=
EXTT4=
EXTT5=
EXTT6=
EXTT7=
EXTT8=
EXTT9=
EXTT10=
EXTT11=
EXTT12=
EXTT13=
EXTT14=
EXTT15=
EXTT16=
EXTT17=
EXTT18=
EXTT19=
PLAYORDER=
